<svg width="19" height="20" fill="none" xmlns="http://www.w3.org/2000/svg"><path d="M17.503 1.818H3.534v.13L3.36 1.31C3.15.54 2.476 0 1.723 0H.551C.316 0 .125.203.125.455c0 .25.19.454.426.454h1.172c.377 0 .713.27.818.655l2.653 9.7-1.36 1.812c-.193.259-.3.583-.3.915 0 .807.616 1.464 1.373 1.464h11.837c.236 0 .427-.204.427-.455s-.191-.455-.427-.455H4.907c-.287 0-.52-.249-.52-.554 0-.126.04-.25.113-.347l1.37-1.826h8.358c.657 0 1.263-.41 1.543-1.044l2.974-6.74c.085-.194.13-.41.13-.623v-.129c0-.807-.616-1.464-1.372-1.464zm.52 1.593a.587.587 0 01-.05.236L15 10.387a.855.855 0 01-.772.522H5.984L3.747 2.727h13.756c.286 0 .52.25.52.555v.129zM5.239 16.364c-.94 0-1.705.815-1.705 1.818C3.534 19.185 4.3 20 5.24 20s1.704-.815 1.704-1.818c0-1.003-.764-1.818-1.704-1.818zm0 2.727c-.47 0-.853-.408-.853-.91 0-.5.383-.908.853-.908s.852.408.852.909c0 .501-.383.909-.852.909zm10.227-2.727c-.94 0-1.705.815-1.705 1.818 0 1.003.765 1.818 1.705 1.818.94 0 1.705-.815 1.705-1.818 0-1.003-.765-1.818-1.705-1.818zm0 2.727c-.47 0-.852-.408-.852-.91 0-.5.382-.908.852-.908s.852.408.852.909c0 .501-.382.909-.852.909z" fill="#372821"/></svg>